<?xml version="1.0" encoding="UTF-8" standalone="no"?>
<!-- Created with Inkscape (http://www.inkscape.org/) -->

<svg
   version="1.1"
   id="svg133"
   width="1722.6667"
   height="832"
   viewBox="0 0 1722.6667 832"
   xmlns="http://www.w3.org/2000/svg"
   xmlns:svg="http://www.w3.org/2000/svg">
  <defs
     id="defs137" />
  <g
     id="g139"
     style="display:inline">
    <path
       style="fill:#0066ff;stroke-width:0.85964"
       d="m 670.26488,237.25105 -8.8065,-4.90929 c -12.20039,-6.80125 -24.07717,-19.96379 -30.31833,-36.2552 -3.2599,-8.50935 -3.83221,-7.14585 -2.24609,-32.05571 0.52641,-8.26727 1.15765,-8.47306 5.68219,-17.66161 5.52378,-11.21782 6.40875,-11.61151 10.60057,-15.76934 7.00588,-6.94906 15.84463,-12.5445 24.54625,-15.76206 7.05272,-2.60784 8.73786,-2.84036 32.18113,-3.53688 13.00205,-0.38631 97.88401,-0.0518 189.99783,0.086 l 167.71857,-0.002 10.928,5.10935 c 11.9472,5.58585 17.3277,11.07036 23.0595,19.65728 5.2149,7.81258 7.5261,11.5874 10.2151,20.12285 3.1843,10.10721 3.5395,17.55657 2.5449,25.40143 -1.8847,14.86486 -7.6863,28.04552 -19.0404,39.36639 -9.6201,9.59197 -15.6969,14.78598 -22.6993,15.57322 -12.8787,1.44787 -329.83947,0.27626 -340.5019,0.32375 -17.91709,0.0118 -35.89936,0.10792 -53.86152,0.3121 z"
       id="path606" />
    <path
       style="fill:#ff9955;stroke-width:0.707107"
       d="m 679.4765,396.90883 c -21.4898,-2.25538 -44.47779,-24.91353 -50.67797,-49.95082 -1.71647,-6.93138 -1.54993,-19.43339 0.35387,-26.5647 3.59923,-13.48208 10.31459,-24.86956 20.39106,-34.57787 9.55541,-9.20628 19.26037,-14.34485 29.52445,-15.63258 3.59737,-0.45132 57.68449,-0.84589 146.10343,-1.06583 l 140.39154,-0.34921 6.24634,3.5943 c 17.0872,9.83243 28.10481,23.25329 34.89848,42.51075 5.7018,16.16256 4.5393,29.59342 -4.0466,46.75151 -8.13546,16.25789 -18.36112,25.81458 -35.1461,32.84687 l -7.44875,3.12075 -137.99678,-0.10039 c -75.89822,-0.0552 -140.06506,-0.31746 -142.59297,-0.58278 z"
       id="path752" />
    <path
       style="fill:#ffe680;stroke-width:0.707107"
       d="m 695.73996,555.96382 c -21.27977,-0.63529 -26.1958,-1.53454 -35.5836,-6.50905 -5.41217,-2.86786 -15.03237,-12.31565 -20.11407,-19.75357 -4.53792,-6.64202 -9.6586,-17.16346 -11.12632,-22.8612 -1.78433,-6.92687 -2.11151,-18.06399 -0.75812,-25.8057 2.21689,-12.68108 11.0227,-28.43635 22.00138,-39.36469 4.78444,-4.7625 6.96129,-6.3307 12.43212,-8.95606 8.25857,-3.96315 11.19583,-4.56575 26.71522,-5.48074 17.61698,-1.03865 194.2621,-1.07409 202.67772,-0.0406 22.88296,2.81002 35.48313,11.14269 48.7121,32.21397 2.17761,3.46854 4.80568,8.87639 5.84153,12.0203 1.65863,5.03407 1.9191,7.12627 2.18591,17.55781 0.24129,9.43378 0.0569,12.94872 -0.90678,17.27999 -4.89054,21.98207 -24.95649,43.86572 -44.01457,48.00169 -2.72754,0.59192 -12.1859,1.32202 -22.09344,1.70541 -19.23308,0.74425 -160.97955,0.73853 -185.96908,-0.007 z"
       id="path823" />
    <path
       style="fill:#8dd35f;stroke-width:0.707107"
       d="m 704.93235,713.65848 c -23.08516,-0.64805 -29.24015,-1.47772 -36.63522,-4.93828 -17.6296,-8.24989 -35.36027,-29.10488 -39.4426,-46.39278 -2.33925,-9.90627 0.10815,-26.81312 5.603,-38.70599 6.31278,-13.6632 18.49054,-26.2399 32.29105,-33.34892 8.38009,-4.31681 19.71764,-4.80547 97.93429,-4.22105 l 64.34672,0.48079 7.55786,3.90282 c 19.39523,10.01553 33.0391,26.99174 37.66657,46.86613 2.40599,10.33343 0.84536,25.93585 -3.79329,37.92335 -6.83748,17.66987 -27.62425,35.05703 -45.16608,37.77933 -6.16713,0.95707 -92.80304,1.42825 -120.3623,0.6546 z"
       id="path1105" />
    <path
       style="fill:#000000;stroke-width:2"
       d="m 1226.3465,717.42316 c -20.3905,-5.76128 -25.3968,-9.86474 -33.4226,-27.39528 l -5.1491,-11.24714 0.5557,-268.6986 0.5557,-268.6986 4.7478,-9.55868 c 5.4258,-10.9236 15.0536,-19.64818 25.8296,-23.40641 5.5476,-1.93478 32.9833,-2.82063 108.6118,-3.50688 110.4734,-1.00243 116.7379,-0.54179 148.8108,10.94229 39.7861,14.24586 86.6538,52.55531 107.7842,88.10226 21.8675,36.78684 31.7179,75.38697 32.0078,125.42742 0.267,46.09782 -4.5854,69.02804 -22.0456,104.17668 -11.3245,22.79694 -29.2341,46.91138 -44.2181,59.53758 -27.8254,23.44692 -59.6213,40.90994 -91.7275,50.37878 -17.0171,5.0187 -20.5021,5.2991 -79.1575,6.36886 l -61.3567,1.11904 -0.6433,65.20954 c -0.6226,63.11246 -0.7912,65.5303 -5.241,75.1846 -6.2672,13.5972 -11.1454,18.26728 -24.1733,23.1416 -14.8754,5.56562 -47.0303,7.0872 -61.7687,2.92294 z m 221.4324,-320.39152 c 16.0813,-7.86382 30.6509,-23.08628 36.0335,-37.6481 3.5565,-9.6217 4.4084,-16.03578 4.2986,-32.36296 -0.2131,-31.68953 -8.9152,-50.08935 -30.509,-64.50916 -19.3584,-12.92701 -20.624,-13.12788 -82.7158,-13.12788 h -56 l -0.5238,77.82262 -0.5238,77.82262 59.5238,-1.33526 c 59.1434,-1.32674 59.5934,-1.36932 70.4165,-6.66188 z"
       id="path1180" />
    <path
       style="fill:#000000;stroke-width:2"
       d="m 290.70523,725.41522 c -42.03944,-9.14686 -94.7784,-46.02436 -118.61085,-82.93812 -9.61684,-14.89538 -14.98907,-31.13102 -13.03776,-39.40192 4.83905,-20.5111 33.4894,-57.25174 53.67202,-68.82798 18.42761,-10.5696 31.25553,-6.88564 56.36962,16.1884 19.1538,17.59792 35.38572,28.47552 47.59173,31.893 27.69874,7.75516 62.6723,-9.47578 77.25646,-38.06308 6.54626,-12.83174 7.72598,-35.06374 8.05946,-151.88198 0.42726,-149.66906 2.6973,-245.16822 6.06142,-255 1.50554,-4.4 6.80872,-12.09588 11.78486,-17.10197 11.72072,-11.79126 22.33864,-14.93093 50.03404,-14.79481 45.35536,0.22291 58.22166,11.32058 62.0257,53.49951 2.40484,26.66452 2.39108,344.45337 -0.016,370.39727 -4.92448,53.07616 -25.79566,99.06372 -62.80942,138.39422 -28.23954,30.00708 -61.12024,49.02034 -98.20026,56.78432 -21.37903,4.47642 -61.56308,4.904 -80.181,0.85314 z"
       id="path1182" />
  </g>
</svg>
